<svg width="54" height="55" viewBox="0 0 54 55" fill="none" xmlns="http://www.w3.org/2000/svg">
<g filter="url(#filter0_d_0_4217)">
<path d="M42 5H39.5V2.5C39.5 1.83696 39.2366 1.20107 38.7678 0.732233C38.2989 0.263392 37.663 0 37 0C36.337 0 35.7011 0.263392 35.2322 0.732233C34.7634 1.20107 34.5 1.83696 34.5 2.5V5H19.5V2.5C19.5 1.83696 19.2366 1.20107 18.7678 0.732233C18.2989 0.263392 17.663 0 17 0C16.337 0 15.7011 0.263392 15.2322 0.732233C14.7634 1.20107 14.5 1.83696 14.5 2.5V5H12C10.0109 5 8.10322 5.79018 6.6967 7.1967C5.29018 8.60322 4.5 10.5109 4.5 12.5V42.5C4.5 44.4891 5.29018 46.3968 6.6967 47.8033C8.10322 49.2098 10.0109 50 12 50H42C43.9891 50 45.8968 49.2098 47.3033 47.8033C48.7098 46.3968 49.5 44.4891 49.5 42.5V12.5C49.5 10.5109 48.7098 8.60322 47.3033 7.1967C45.8968 5.79018 43.9891 5 42 5ZM17 37.5C16.5055 37.5 16.0222 37.3534 15.6111 37.0787C15.2 36.804 14.8795 36.4135 14.6903 35.9567C14.5011 35.4999 14.4516 34.9972 14.548 34.5123C14.6445 34.0273 14.8826 33.5819 15.2322 33.2322C15.5819 32.8826 16.0273 32.6445 16.5123 32.548C16.9972 32.4516 17.4999 32.5011 17.9567 32.6903C18.4135 32.8795 18.804 33.1999 19.0787 33.6111C19.3534 34.0222 19.5 34.5055 19.5 35C19.5 35.663 19.2366 36.2989 18.7678 36.7678C18.2989 37.2366 17.663 37.5 17 37.5ZM37 37.5H27C26.337 37.5 25.7011 37.2366 25.2322 36.7678C24.7634 36.2989 24.5 35.663 24.5 35C24.5 34.337 24.7634 33.7011 25.2322 33.2322C25.7011 32.7634 26.337 32.5 27 32.5H37C37.663 32.5 38.2989 32.7634 38.7678 33.2322C39.2366 33.7011 39.5 34.337 39.5 35C39.5 35.663 39.2366 36.2989 38.7678 36.7678C38.2989 37.2366 37.663 37.5 37 37.5ZM44.5 22.5H9.5V12.5C9.5 11.837 9.76339 11.2011 10.2322 10.7322C10.7011 10.2634 11.337 10 12 10H14.5V12.5C14.5 13.163 14.7634 13.7989 15.2322 14.2678C15.7011 14.7366 16.337 15 17 15C17.663 15 18.2989 14.7366 18.7678 14.2678C19.2366 13.7989 19.5 13.163 19.5 12.5V10H34.5V12.5C34.5 13.163 34.7634 13.7989 35.2322 14.2678C35.7011 14.7366 36.337 15 37 15C37.663 15 38.2989 14.7366 38.7678 14.2678C39.2366 13.7989 39.5 13.163 39.5 12.5V10H42C42.663 10 43.2989 10.2634 43.7678 10.7322C44.2366 11.2011 44.5 11.837 44.5 12.5V22.5Z" fill="#181A18"/>
</g>
<defs>
<filter id="filter0_d_0_4217" x="0.5" y="0" width="53" height="58" filterUnits="userSpaceOnUse" color-interpolation-filters="sRGB">
<feFlood flood-opacity="0" result="BackgroundImageFix"/>
<feColorMatrix in="SourceAlpha" type="matrix" values="0 0 0 0 0 0 0 0 0 0 0 0 0 0 0 0 0 0 127 0" result="hardAlpha"/>
<feOffset dy="4"/>
<feGaussianBlur stdDeviation="2"/>
<feComposite in2="hardAlpha" operator="out"/>
<feColorMatrix type="matrix" values="0 0 0 0 0 0 0 0 0 0 0 0 0 0 0 0 0 0 0.25 0"/>
<feBlend mode="normal" in2="BackgroundImageFix" result="effect1_dropShadow_0_4217"/>
<feBlend mode="normal" in="SourceGraphic" in2="effect1_dropShadow_0_4217" result="shape"/>
</filter>
</defs>
</svg>
