<svg width="56" height="41" viewBox="0 0 56 41" fill="none" xmlns="http://www.w3.org/2000/svg">
<path d="M29.25 5.5C29.25 2.725 31.475 0.5 34.25 0.5H43C45.75 0.5 48 2.75 48 5.5V10.9C45.1 11.925 43 14.675 43 17.925V23H29.25V5.5ZM13 17.9V23H26.75V5.5C26.75 2.725 24.525 0.5 21.75 0.5H13C10.25 0.5 8 2.75 8 5.5V10.875C10.9 11.9 13 14.675 13 17.9ZM49.65 13.075C47.2 13.475 45.5 15.8 45.5 18.3V25.5H10.5V18C10.5 16.6739 9.97322 15.4021 9.03553 14.4645C8.09785 13.5268 6.82608 13 5.5 13C4.17392 13 2.90215 13.5268 1.96447 14.4645C1.02678 15.4021 0.5 16.6739 0.5 18V30.5C0.5 33.25 2.75 35.5 5.5 35.5V40.5H10.5V35.5H45.5V40.5H50.5V35.5C53.25 35.5 55.5 33.25 55.5 30.5V18C55.5 14.975 52.775 12.55 49.65 13.075Z" fill="black"/>
</svg>
