<svg width="51" height="40" viewBox="0 0 51 40" fill="none" xmlns="http://www.w3.org/2000/svg">
<path d="M25 40C26.3807 40 27.5 38.8807 27.5 37.5C27.5 36.1193 26.3807 35 25 35C23.6193 35 22.5 36.1193 22.5 37.5C22.5 38.8807 23.6193 40 25 40Z" fill="#181A18"/>
<path d="M24.9992 25.0002C21.7635 25.0001 18.6539 26.2547 16.3242 28.5002C15.8468 28.961 15.572 29.5926 15.5603 30.256C15.5486 30.9194 15.8009 31.5603 16.2617 32.0377C16.7225 32.5151 17.3541 32.7898 18.0175 32.8015C18.6809 32.8133 19.3218 32.561 19.7992 32.1002C21.219 30.8001 23.0742 30.0791 24.9992 30.0791C26.9242 30.0791 28.7795 30.8001 30.1992 32.1002C30.6766 32.561 31.3175 32.8133 31.9809 32.8015C32.6443 32.7898 33.2759 32.5151 33.7367 32.0377C34.1975 31.5603 34.4498 30.9194 34.4381 30.256C34.4264 29.5926 34.1516 28.961 33.6742 28.5002C31.3445 26.2547 28.2349 25.0001 24.9992 25.0002ZM24.9992 12.5002C21.9797 12.5021 18.9915 13.1119 16.2127 14.293C13.4338 15.4741 10.9211 17.2025 8.82421 19.3752C8.59604 19.6165 8.41763 19.9003 8.29917 20.2106C8.18071 20.5209 8.12452 20.8514 8.1338 21.1834C8.14309 21.5153 8.21767 21.8422 8.35329 22.1454C8.48891 22.4485 8.68291 22.722 8.92421 22.9502C9.41154 23.411 10.062 23.6593 10.7324 23.6406C11.0644 23.6313 11.3913 23.5567 11.6944 23.4211C11.9976 23.2855 12.271 23.0915 12.4992 22.8502C14.1317 21.1565 16.0888 19.8093 18.2538 18.8891C20.4187 17.969 22.7469 17.4947 25.0992 17.4947C27.4516 17.4947 29.7798 17.969 31.9447 18.8891C34.1096 19.8093 36.0667 21.1565 37.6992 22.8502C37.9307 23.0864 38.2069 23.2743 38.5115 23.403C38.8162 23.5318 39.1434 23.5988 39.4742 23.6002C39.9628 23.5983 40.4401 23.4533 40.8471 23.1832C41.2542 22.913 41.5732 22.5295 41.7647 22.08C41.9562 21.6306 42.0118 21.1349 41.9246 20.6541C41.8374 20.1734 41.6113 19.7288 41.2742 19.3752C39.1657 17.1904 36.6367 15.4549 33.8397 14.2734C31.0427 13.0919 28.0355 12.4887 24.9992 12.5002Z" fill="#181A18"/>
<path d="M49.2997 9.82517C42.7758 3.5316 34.0645 0.0146484 24.9997 0.0146484C15.9349 0.0146484 7.22367 3.5316 0.699734 9.82517C0.277828 10.2943 0.0489129 10.9056 0.0589078 11.5365C0.0689026 12.1674 0.317068 12.7711 0.753624 13.2266C1.19018 13.6822 1.78283 13.9558 2.41271 13.9926C3.04258 14.0294 3.66308 13.8267 4.14973 13.4252C9.74373 8.01797 17.2196 4.99546 24.9997 4.99546C32.7799 4.99546 40.2557 8.01797 45.8497 13.4252C46.3132 13.8719 46.9311 14.1226 47.5747 14.1252C47.9115 14.1239 48.2445 14.0546 48.5538 13.9214C48.8632 13.7882 49.1424 13.5939 49.3747 13.3502C49.8305 12.8719 50.0785 12.2327 50.0644 11.5722C50.0504 10.9117 49.7755 10.2836 49.2997 9.82517Z" fill="#181A18"/>
</svg>
