<svg width="52" height="52" viewBox="0 0 52 52" fill="none" xmlns="http://www.w3.org/2000/svg">
<path d="M43.6746 8.32481C39.5726 4.19606 34.1587 1.62784 28.3661 1.06292C22.5736 0.497988 16.7654 1.97176 11.943 5.23014C7.12062 8.48852 3.58615 13.3273 1.94897 18.9123C0.311795 24.4973 0.674501 30.4786 2.97456 35.8248C3.21429 36.3217 3.29295 36.8811 3.19956 37.4248L0.999563 47.9998C0.914803 48.4053 0.932112 48.8254 1.04993 49.2225C1.16775 49.6196 1.38239 49.9812 1.67456 50.2748C1.91407 50.5126 2.19925 50.6994 2.5129 50.824C2.82655 50.9486 3.16218 51.0084 3.49956 50.9998H3.99956L14.6996 48.8498C15.2434 48.7844 15.7949 48.862 16.2996 49.0748C21.6458 51.3749 27.627 51.7376 33.212 50.1004C38.797 48.4632 43.6358 44.9288 46.8942 40.1063C50.1526 35.2839 51.6264 29.4758 51.0615 23.6833C50.4965 17.8907 47.9283 12.4768 43.7996 8.37481L43.6746 8.32481ZM15.9996 28.4998C15.5051 28.4998 15.0218 28.3532 14.6106 28.0785C14.1995 27.8038 13.8791 27.4133 13.6899 26.9565C13.5006 26.4997 13.4511 25.997 13.5476 25.5121C13.6441 25.0271 13.8822 24.5817 14.2318 24.232C14.5814 23.8824 15.0269 23.6443 15.5118 23.5478C15.9968 23.4514 16.4995 23.5009 16.9563 23.6901C17.4131 23.8793 17.8035 24.1998 18.0782 24.6109C18.3529 25.022 18.4996 25.5054 18.4996 25.9998C18.4996 26.6629 18.2362 27.2987 17.7673 27.7676C17.2985 28.2364 16.6626 28.4998 15.9996 28.4998ZM25.9996 28.4998C25.5051 28.4998 25.0218 28.3532 24.6106 28.0785C24.1995 27.8038 23.8791 27.4133 23.6899 26.9565C23.5006 26.4997 23.4511 25.997 23.5476 25.5121C23.6441 25.0271 23.8822 24.5817 24.2318 24.232C24.5814 23.8824 25.0269 23.6443 25.5118 23.5478C25.9968 23.4514 26.4995 23.5009 26.9563 23.6901C27.4131 23.8793 27.8035 24.1998 28.0782 24.6109C28.3529 25.022 28.4996 25.5054 28.4996 25.9998C28.4996 26.6629 28.2362 27.2987 27.7673 27.7676C27.2985 28.2364 26.6626 28.4998 25.9996 28.4998ZM35.9996 28.4998C35.5051 28.4998 35.0218 28.3532 34.6106 28.0785C34.1995 27.8038 33.8791 27.4133 33.6899 26.9565C33.5006 26.4997 33.4511 25.997 33.5476 25.5121C33.6441 25.0271 33.8822 24.5817 34.2318 24.232C34.5814 23.8824 35.0269 23.6443 35.5118 23.5478C35.9968 23.4514 36.4995 23.5009 36.9563 23.6901C37.4131 23.8793 37.8035 24.1998 38.0782 24.6109C38.3529 25.022 38.4996 25.5054 38.4996 25.9998C38.4996 26.6629 38.2362 27.2987 37.7673 27.7676C37.2985 28.2364 36.6626 28.4998 35.9996 28.4998Z" fill="#181A18"/>
</svg>
