<svg width="17" height="16" viewBox="0 0 17 16" fill="none" xmlns="http://www.w3.org/2000/svg">
<path d="M15.3999 7H9.3999V1C9.3999 0.734784 9.29454 0.48043 9.10701 0.292893C8.91947 0.105357 8.66512 0 8.3999 0C8.13469 0 7.88033 0.105357 7.69279 0.292893C7.50526 0.48043 7.3999 0.734784 7.3999 1V7H1.3999C1.13469 7 0.880332 7.10536 0.692796 7.29289C0.505259 7.48043 0.399902 7.73478 0.399902 8C0.399902 8.26522 0.505259 8.51957 0.692796 8.70711C0.880332 8.89464 1.13469 9 1.3999 9H7.3999V15C7.3999 15.2652 7.50526 15.5196 7.69279 15.7071C7.88033 15.8946 8.13469 16 8.3999 16C8.66512 16 8.91947 15.8946 9.10701 15.7071C9.29454 15.5196 9.3999 15.2652 9.3999 15V9H15.3999C15.6651 9 15.9195 8.89464 16.107 8.70711C16.2945 8.51957 16.3999 8.26522 16.3999 8C16.3999 7.73478 16.2945 7.48043 16.107 7.29289C15.9195 7.10536 15.6651 7 15.3999 7Z" fill="#181A18"/>
</svg>
